# xmcd
#
# Track frame offsets:
#	150
#	20079
#	43832
#	69603
#	91468
#	112249
#	136332
#	161368
#
# Disc length: 2466 seconds
#
# Revision: 0
# Processed by: cddbd v1.5.2PL0 Copyright (c) Steve Scherf et al.
# Submitted via: EasyCDDAExtractor 10.0.5.1
#
DISCID=7009a008
DTITLE=Serjik - Aroosi
DYEAR=2002
DGENRE=Pop/Funk
TTITLE0=Ganjeh Tala
TTITLE1=Naamzad
TTITLE2=Aroosi
TTITLE3=Avardimesh
TTITLE4=Baleh Boroon
TTITLE5=Romeo and Juliet
TTITLE6=Morgheh Darya
TTITLE7=Hamsar -ji
EXTD=
EXTT0=
EXTT1=
EXTT2=
EXTT3=
EXTT4=
EXTT5=
EXTT6=
EXTT7=
PLAYORDER=
